<svg width="19" height="15" viewBox="0 0 19 15" fill="none" xmlns="http://www.w3.org/2000/svg">
<path fill-rule="evenodd" clip-rule="evenodd" d="M3.05176e-05 7.38922C3.05176e-05 7.1715 0.071516 6.9627 0.198765 6.80875C0.326014 6.6548 0.4986 6.56831 0.678556 6.56831H16.6823L12.4116 1.40315C12.3486 1.32683 12.2985 1.23621 12.2644 1.13649C12.2302 1.03677 12.2127 0.929886 12.2127 0.821946C12.2127 0.714007 12.2302 0.607124 12.2644 0.507401C12.2985 0.407678 12.3486 0.317067 12.4116 0.240742C12.4747 0.164418 12.5496 0.103874 12.6321 0.062567C12.7145 0.0212603 12.8028 0 12.892 0C12.9813 0 13.0696 0.0212603 13.152 0.062567C13.2345 0.103874 13.3094 0.164418 13.3724 0.240742L18.8007 6.80802C18.8638 6.88427 18.914 6.97486 18.9482 7.07459C18.9824 7.17433 19 7.28124 19 7.38922C19 7.4972 18.9824 7.60412 18.9482 7.70385C18.914 7.80358 18.8638 7.89417 18.8007 7.97043L13.3724 14.5377C13.3094 14.614 13.2345 14.6746 13.152 14.7159C13.0696 14.7572 12.9813 14.7784 12.892 14.7784C12.8028 14.7784 12.7145 14.7572 12.6321 14.7159C12.5496 14.6746 12.4747 14.614 12.4116 14.5377C12.3486 14.4614 12.2985 14.3708 12.2644 14.271C12.2302 14.1713 12.2127 14.0644 12.2127 13.9565C12.2127 13.8486 12.2302 13.7417 12.2644 13.642C12.2985 13.5422 12.3486 13.4516 12.4116 13.3753L16.6823 8.21013H0.678556C0.4986 8.21013 0.326014 8.12364 0.198765 7.96969C0.071516 7.81574 3.05176e-05 7.60694 3.05176e-05 7.38922Z" fill="white"/>
</svg>
