<svg width="43" height="43" viewBox="0 0 43 43" fill="none" xmlns="http://www.w3.org/2000/svg">
<circle cx="21.952" cy="21.048" r="21.048" fill="white"/>
<g clip-path="url(#clip0)">
<path d="M16.9015 30.5196H12.3196V15.7644H16.9015V30.5196ZM14.6078 13.7517C13.1429 13.7517 11.9542 12.5378 11.9542 11.0728C11.9542 10.369 12.2337 9.69407 12.7314 9.19642C13.229 8.69877 13.904 8.41919 14.6078 8.41919C15.3116 8.41919 15.9865 8.69877 16.4842 9.19642C16.9818 9.69407 17.2614 10.369 17.2614 11.0728C17.2614 12.5378 16.0727 13.7517 14.6078 13.7517ZM34.0499 30.5196H29.4782V23.337C29.4782 21.625 29.4435 19.4299 27.0961 19.4299C24.714 19.4299 24.3486 21.2895 24.3486 23.2139V30.5196H19.7714V15.7644H24.1654V17.7771H24.2294C24.8411 16.6177 26.3352 15.3942 28.5642 15.3942C33.2014 15.3942 34.0538 18.4481 34.0538 22.4143V30.5196H34.0499Z" fill="black"/>
</g>
<defs>
<clipPath id="clip0">
<rect width="25.2576" height="25.2576" fill="white" transform="translate(10.3755 8.41919)"/>
</clipPath>
</defs>
</svg>
