<svg width="43" height="43" viewBox="0 0 43 43" fill="none" xmlns="http://www.w3.org/2000/svg">
<circle cx="21.3494" cy="21.048" r="21.048" fill="white"/>
<path fill-rule="evenodd" clip-rule="evenodd" d="M16.5767 9.54114C17.8112 9.48431 18.2048 9.47168 21.3494 9.47168C24.4939 9.47168 24.8875 9.48536 26.121 9.54114C27.3544 9.59692 28.1963 9.79371 28.933 10.0789C29.7044 10.3704 30.4042 10.8261 30.9831 11.4155C31.5724 11.9932 32.027 12.692 32.3175 13.4645C32.6038 14.2012 32.7995 15.0431 32.8563 16.2744C32.9132 17.511 32.9258 17.9046 32.9258 21.0481C32.9258 24.1927 32.9121 24.5863 32.8563 25.8207C32.8006 27.052 32.6038 27.894 32.3175 28.6307C32.027 29.4032 31.5716 30.1032 30.9831 30.6818C30.4042 31.2711 29.7044 31.7258 28.933 32.0162C28.1963 32.3025 27.3544 32.4982 26.1231 32.5551C24.8875 32.6119 24.4939 32.6245 21.3494 32.6245C18.2048 32.6245 17.8112 32.6108 16.5767 32.5551C15.3454 32.4993 14.5035 32.3025 13.7668 32.0162C12.9943 31.7257 12.2943 31.2703 11.7157 30.6818C11.1267 30.1037 10.671 29.404 10.3802 28.6317C10.095 27.895 9.89924 27.0531 9.84241 25.8218C9.78558 24.5852 9.77295 24.1916 9.77295 21.0481C9.77295 17.9035 9.78663 17.5099 9.84241 16.2765C9.89818 15.0431 10.095 14.2012 10.3802 13.4645C10.6714 12.6921 11.1275 11.9925 11.7167 11.4144C12.2945 10.8256 12.9938 10.3698 13.7658 10.0789C14.5024 9.79371 15.3444 9.59797 16.5757 9.54114H16.5767ZM26.0273 11.6249C24.8065 11.5691 24.4403 11.5575 21.3494 11.5575C18.2585 11.5575 17.8922 11.5691 16.6714 11.6249C15.5422 11.6765 14.9297 11.8648 14.5214 12.0238C13.9815 12.2342 13.5953 12.4837 13.1901 12.8888C12.806 13.2625 12.5104 13.7174 12.325 14.2201C12.1661 14.6284 11.9777 15.2409 11.9262 16.3702C11.8704 17.591 11.8588 17.9572 11.8588 21.0481C11.8588 24.139 11.8704 24.5052 11.9262 25.726C11.9777 26.8552 12.1661 27.4677 12.325 27.8761C12.5102 28.3781 12.806 28.8338 13.1901 29.2074C13.5637 29.5915 14.0194 29.8872 14.5214 30.0724C14.9297 30.2314 15.5422 30.4197 16.6714 30.4713C17.8922 30.5271 18.2574 30.5387 21.3494 30.5387C24.4413 30.5387 24.8065 30.5271 26.0273 30.4713C27.1565 30.4197 27.769 30.2314 28.1774 30.0724C28.7172 29.862 29.1035 29.6125 29.5086 29.2074C29.8928 28.8338 30.1885 28.3781 30.3737 27.8761C30.5326 27.4677 30.721 26.8552 30.7726 25.726C30.8284 24.5052 30.8399 24.139 30.8399 21.0481C30.8399 17.9572 30.8284 17.591 30.7726 16.3702C30.721 15.2409 30.5326 14.6284 30.3737 14.2201C30.1632 13.6802 29.9138 13.294 29.5086 12.8888C29.135 12.5048 28.6801 12.2092 28.1774 12.0238C27.769 11.8648 27.1565 11.6765 26.0273 11.6249ZM19.8707 24.6168C20.6965 24.9605 21.616 25.0069 22.4722 24.748C23.3284 24.4892 24.0681 23.9411 24.5651 23.1974C25.0621 22.4537 25.2854 21.5605 25.197 20.6704C25.1086 19.7803 24.7139 18.9485 24.0803 18.3171C23.6765 17.9135 23.1881 17.6044 22.6505 17.4122C22.1128 17.22 21.5393 17.1493 20.971 17.2054C20.4028 17.2614 19.8541 17.4428 19.3643 17.7363C18.8746 18.0299 18.456 18.4284 18.1388 18.9031C17.8216 19.3779 17.6135 19.9171 17.5297 20.4819C17.4458 21.0467 17.4883 21.623 17.6539 22.1694C17.8195 22.7159 18.1043 23.2188 18.4876 23.642C18.8709 24.0652 19.3433 24.3981 19.8707 24.6168ZM17.1419 16.8406C17.6944 16.2881 18.3504 15.8498 19.0723 15.5507C19.7942 15.2517 20.568 15.0978 21.3494 15.0978C22.1308 15.0978 22.9045 15.2517 23.6265 15.5507C24.3484 15.8498 25.0043 16.2881 25.5569 16.8406C26.1094 17.3931 26.5477 18.0491 26.8467 18.771C27.1458 19.4929 27.2997 20.2667 27.2997 21.0481C27.2997 21.8295 27.1458 22.6033 26.8467 23.3252C26.5477 24.0471 26.1094 24.7031 25.5569 25.2556C24.441 26.3715 22.9275 26.9984 21.3494 26.9984C19.7712 26.9984 18.2578 26.3715 17.1419 25.2556C16.026 24.1397 15.3991 22.6262 15.3991 21.0481C15.3991 19.47 16.026 17.9565 17.1419 16.8406ZM28.6194 15.9839C28.7563 15.8548 28.8659 15.6995 28.9417 15.5272C29.0175 15.3549 29.058 15.1691 29.0608 14.9809C29.0635 14.7927 29.0285 14.6059 28.9577 14.4314C28.8869 14.257 28.7819 14.0986 28.6488 13.9655C28.5157 13.8324 28.3572 13.7273 28.1828 13.6566C28.0084 13.5858 27.8215 13.5508 27.6333 13.5535C27.4451 13.5563 27.2594 13.5967 27.0871 13.6725C26.9148 13.7484 26.7595 13.858 26.6303 13.9949C26.3791 14.2612 26.2416 14.6149 26.2469 14.9809C26.2523 15.347 26.4 15.6965 26.6589 15.9554C26.9178 16.2142 27.2673 16.362 27.6333 16.3673C27.9994 16.3727 28.3531 16.2351 28.6194 15.9839Z" fill="black"/>
</svg>
