<svg width="21" height="21" viewBox="0 0 21 21" fill="none" xmlns="http://www.w3.org/2000/svg">
<path d="M3.88889 20H17.1111C18.1528 20 19 19.1479 19 18.1V7.65C19 7.39804 18.9005 7.15641 18.7234 6.97825C18.5463 6.80009 18.306 6.7 18.0556 6.7H15.2222V5.75C15.2222 3.13085 13.1038 1 10.5 1C7.89617 1 5.77778 3.13085 5.77778 5.75V6.7H2.94444C2.69396 6.7 2.45374 6.80009 2.27662 6.97825C2.0995 7.15641 2 7.39804 2 7.65V18.1C2 19.1479 2.84717 20 3.88889 20ZM7.66667 5.75C7.66667 4.1787 8.93789 2.9 10.5 2.9C12.0621 2.9 13.3333 4.1787 13.3333 5.75V6.7H7.66667V5.75ZM3.88889 8.6H5.77778V10.5H7.66667V8.6H13.3333V10.5H15.2222V8.6H17.1111L17.113 18.1H3.88889V8.6Z" fill="black"/>
</svg>
