<svg width="811" height="810" viewBox="0 0 811 810" fill="none" xmlns="http://www.w3.org/2000/svg">
<g clip-path="url(#clip0)">
<path d="M159.305 251.615L180.081 226.12C186.979 217.655 195.409 210.776 205.136 205.677C209.275 203.506 214.39 205.104 216.56 209.242C218.731 213.381 217.135 218.496 212.995 220.666C205.305 224.698 198.645 230.131 193.2 236.812L172.423 262.307C167.551 268.286 163.84 275.027 161.395 282.342L160.168 286.015C160.568 286.301 160.974 286.575 161.359 286.889L175.03 298.03C178.653 300.982 179.196 306.312 176.244 309.935C173.291 313.558 167.961 314.101 164.338 311.149L150.669 300.009C147.697 297.587 143.309 298.035 140.887 301.007L128.442 316.278C126.021 319.249 126.468 323.637 129.44 326.059L452.808 589.584C481.183 612.708 515.062 629.15 550.785 637.133L563.263 639.923C563.422 639.955 563.584 639.899 563.685 639.774L574.108 626.985C574.153 626.929 574.237 626.826 574.192 626.625C574.146 626.421 574.025 626.366 573.962 626.335L544.846 612.392C527.38 604.029 510.914 593.587 495.904 581.354L192.294 333.931C188.671 330.979 188.128 325.649 191.08 322.026C194.032 318.403 199.363 317.86 202.986 320.812L260.694 367.84L238.632 295.991C235.132 284.589 236.922 272.362 243.546 262.443C250.17 252.524 260.776 246.183 272.649 245.046L282.408 244.112C278.125 237.217 274.446 229.889 271.458 222.189L267.071 210.882C266.773 210.114 265.995 209.653 265.176 209.763L245.152 212.449C240.52 213.072 236.262 209.819 235.639 205.187C235.017 200.555 238.269 196.297 242.901 195.674L262.925 192.988C271.518 191.834 279.711 196.674 282.848 204.759L287.235 216.066C297.285 241.965 316.244 263.075 340.179 275.974L351.58 267.219C357.803 262.439 365.236 259.78 373.079 259.527L425.278 257.845C431.919 257.631 438.021 261.64 440.463 267.822L466.775 334.461L468.321 333.883C472.701 332.247 477.576 334.471 479.211 338.847C480.847 343.225 478.624 348.1 474.247 349.737L472.992 350.205L482.075 373.212C486.22 371.941 490.723 374.022 492.385 378.115C494.069 382.26 492.226 386.954 488.266 388.891L494.202 403.927C497.519 403.451 500.942 404.979 502.725 408.059C504.946 411.894 503.816 416.744 500.244 419.233L509.206 441.93C512.429 441.688 515.647 443.305 517.285 446.333C519.264 449.986 518.27 454.447 515.138 456.957L522.549 475.728C526.695 473.763 531.669 475.456 533.735 479.578C535.829 483.757 534.138 488.841 529.96 490.934L529.4 491.215C532.742 497.471 536.716 503.371 541.303 508.832L597.148 575.344C604.406 583.987 606.545 595.519 602.873 606.19C600.555 612.925 596.199 618.5 590.528 622.29C590.585 622.505 590.661 622.711 590.71 622.928C591.877 628.152 590.608 633.527 587.227 637.677L576.804 650.466C572.627 655.592 566.026 657.879 559.572 656.438L547.093 653.649C508.819 645.095 472.518 627.478 442.116 602.702L118.749 339.178C108.543 330.861 107.006 315.791 115.323 305.585L127.768 290.314C131.909 285.234 137.723 282.305 143.778 281.667L145.346 276.977C148.44 267.717 153.136 259.184 159.305 251.615ZM425.018 274.786L373.625 276.442C369.343 276.58 365.286 278.032 361.889 280.641L357.914 283.694C360.993 284.736 364.126 285.66 367.312 286.445L368.619 286.767C390.561 292.17 409.898 305.257 423.067 323.621L438.438 345.053L450.92 340.388L425.018 274.786ZM448.656 359.301L463.901 380.557L466.381 379.549L457.135 356.132L448.656 359.301ZM528.341 519.715C522.902 513.238 518.204 506.229 514.267 498.793C511.201 500.31 507.658 499.8 505.165 497.769C504.266 497.036 503.504 496.105 502.951 495.001C500.857 490.822 502.548 485.738 506.726 483.645L507.355 483.329L500.201 465.209L494.528 468.281C491.422 469.965 487.728 469.502 485.149 467.4C484.317 466.722 483.601 465.873 483.058 464.87C480.831 460.76 482.358 455.625 486.468 453.399L492.839 449.948L479.469 431.306L475.615 433.539C472.483 435.353 468.674 434.936 466.025 432.777C465.254 432.149 464.58 431.371 464.051 430.458C461.708 426.414 463.087 421.237 467.133 418.895L469.559 417.49L457.916 401.257L457.657 401.362C454.69 402.568 451.438 401.969 449.119 400.078C448.054 399.211 447.185 398.07 446.632 396.708C445.357 393.572 446.106 390.125 448.257 387.789L432.229 365.439L431.478 365.72C428.557 366.811 425.416 366.185 423.163 364.349C422.037 363.432 421.134 362.214 420.589 360.757C419.4 357.574 420.256 354.135 422.49 351.862L409.31 333.483C398.488 318.394 382.597 307.639 364.569 303.2L363.472 302.93C364.74 318.252 368.189 340.517 376.077 350.406L415.487 399.811C418.401 403.464 417.802 408.789 414.148 411.703C410.978 414.232 406.551 414.115 403.531 411.654C403.07 411.278 402.642 410.848 402.256 410.365L362.847 360.96C349.804 344.609 346.816 311.254 346.13 297.385C325.851 289.341 307.968 276.446 293.994 260.004L274.258 261.893C267.469 262.544 261.404 266.168 257.617 271.84C253.831 277.512 252.806 284.503 254.808 291.022L284.303 387.082L424.561 501.384L444.086 493.128C444.789 492.831 445.501 492.565 446.214 492.314L444.954 480.883C443.532 467.984 438.503 455.805 430.411 445.661L424.93 438.79C422.016 435.136 422.616 429.811 426.269 426.898C429.922 423.983 435.248 424.579 438.161 428.236L443.642 435.107C453.733 447.756 460.003 462.944 461.777 479.028L463.033 490.421C470.017 491.23 476.761 493.984 482.434 498.607L553.913 556.858C556.608 559.054 559.78 560.484 563.096 561.11L528.341 519.715ZM586.869 600.683C588.59 595.681 587.588 590.277 584.186 586.227L576.553 577.137C565.086 580.144 552.575 577.6 543.222 569.978L471.742 511.726C467.379 508.171 461.866 506.613 456.448 507.215C456.422 507.219 456.398 507.225 456.371 507.227C456.321 507.233 456.273 507.231 456.223 507.236C454.343 507.466 452.477 507.954 450.676 508.715L439.407 513.479L506.596 568.234C520.569 579.621 535.897 589.343 552.155 597.127L578.315 609.654C582.312 608.062 585.432 604.859 586.869 600.683Z" fill="black"/>
</g>
<defs>
<clipPath id="clip0">
<rect width="575.607" height="575.607" fill="white" transform="matrix(-0.775188 -0.63173 -0.63173 0.775188 810.559 363.629)"/>
</clipPath>
</defs>
</svg>
