<svg width="43" height="43" viewBox="0 0 43 43" fill="none" xmlns="http://www.w3.org/2000/svg">
<circle cx="21.6506" cy="21.048" r="21.048" fill="white"/>
<path d="M33.9037 13.6148C33.025 14.0042 32.0809 14.2673 31.0885 14.3862C32.1125 13.7735 32.8786 12.8092 33.2439 11.6731C32.2818 12.2446 31.2289 12.6468 30.1308 12.8623C29.3925 12.0739 28.4144 11.5514 27.3486 11.3758C26.2828 11.2002 25.1889 11.3814 24.2366 11.8912C23.2843 12.4011 22.527 13.2111 22.0822 14.1954C21.6375 15.1798 21.5301 16.2834 21.7769 17.335C19.8275 17.2372 17.9205 16.7305 16.1796 15.8479C14.4387 14.9653 12.9029 13.7265 11.6717 12.2119C11.2508 12.9381 11.0087 13.78 11.0087 14.6767C11.0082 15.4839 11.207 16.2787 11.5874 16.9906C11.9678 17.7026 12.518 18.3096 13.1893 18.7579C12.4108 18.7331 11.6495 18.5228 10.9687 18.1443V18.2075C10.9686 19.3396 11.3602 20.4369 12.0771 21.3131C12.7939 22.1894 13.7919 22.7906 14.9015 23.0149C14.1794 23.2103 13.4222 23.2391 12.6873 23.099C13.0004 24.0732 13.6102 24.925 14.4315 25.5353C15.2528 26.1456 16.2443 26.4838 17.2673 26.5025C15.5307 27.8658 13.386 28.6053 11.1781 28.6021C10.7871 28.6022 10.3963 28.5793 10.0079 28.5336C12.2489 29.9746 14.8577 30.7393 17.522 30.7363C26.5411 30.7363 31.4716 23.2664 31.4716 16.7878C31.4716 16.5773 31.4663 16.3647 31.4569 16.1542C32.4159 15.4607 33.2438 14.6018 33.9016 13.618L33.9037 13.6148Z" fill="black"/>
</svg>
